<mxfile host="app.diagrams.net" modified="2023-03-26T15:08:04.324Z" agent="Mozilla/5.0 (Windows NT 10.0; Win64; x64) AppleWebKit/537.36 (KHTML, like Gecko) Chrome/111.0.0.0 Safari/537.36" version="21.1.1" etag="oTDDgN2DSqqb4NOPRDgW" type="github">
  <diagram name="Page-1" id="-Yk2TEReZ_ekw6uZ7TpP">
    <mxGraphModel>
      <root>
        <mxCell id="0" />
        <mxCell id="1" parent="0" />
      </root>
    </mxGraphModel>
  </diagram>
</mxfile>
